<?xml version="1.0" standalone="no"?>
<!DOCTYPE svg PUBLIC "-//W3C//DTD SVG 20010904//EN"
 "http://www.w3.org/TR/2001/REC-SVG-20010904/DTD/svg10.dtd">
<svg version="1.0" xmlns="http://www.w3.org/2000/svg"
 width="864.000000pt" height="864.000000pt" viewBox="0 0 864.000000 864.000000"
 preserveAspectRatio="xMidYMid meet">

<g transform="translate(0.000000,864.000000) scale(0.100000,-0.100000)"
fill="#000000" stroke="none">
<path d="M4125 7552 c-5 -4 -35 -14 -65 -21 -150 -36 -358 -148 -360 -193 0
-10 -4 -18 -9 -18 -9 0 -19 -24 -55 -135 -28 -87 -18 -136 40 -195 31 -33 34
-43 40 -113 7 -76 7 -76 -20 -86 -30 -12 -35 -41 -7 -48 23 -6 34 -69 20 -116
-11 -35 -19 -177 -12 -190 3 -4 11 -2 20 4 18 16 33 -3 33 -43 0 -34 -21 -55
-68 -68 -39 -10 -125 -82 -135 -112 -4 -10 -11 -18 -17 -18 -5 0 -10 -5 -10
-10 0 -16 -43 -104 -54 -112 -20 -14 -47 -636 -40 -953 6 -273 15 -373 40
-432 29 -69 99 -207 111 -221 7 -7 17 -29 22 -48 5 -19 23 -56 39 -82 66 -105
91 -158 82 -171 -8 -14 -24 -13 -102 5 -23 5 -29 2 -42 -27 -8 -19 -25 -47
-38 -62 -80 -98 -90 -113 -143 -224 -19 -39 -35 -79 -35 -87 0 -9 -4 -16 -9
-16 -5 0 -11 -11 -13 -25 -7 -33 20 -34 51 -1 l23 24 48 -30 c26 -16 74 -54
106 -84 33 -30 79 -66 104 -81 25 -14 47 -29 50 -33 3 -3 26 -18 52 -33 26
-15 53 -33 60 -40 25 -24 138 -78 149 -71 6 3 9 17 6 30 -2 13 -1 24 3 24 14
0 17 74 3 100 -7 14 -13 31 -13 38 0 27 -41 72 -64 72 -13 0 -29 7 -36 15 -7
8 -18 15 -25 15 -8 0 -15 4 -17 8 -4 10 -129 72 -146 72 -6 0 -12 4 -12 9 0
12 -59 71 -71 71 -5 0 -9 6 -9 14 0 7 -9 16 -20 19 -23 6 -44 53 -37 82 3 11
8 30 11 43 12 52 70 95 179 131 33 11 41 11 56 -3 10 -9 25 -16 33 -16 9 0 18
-7 22 -15 3 -8 2 -15 -3 -15 -17 0 -23 -70 -7 -85 8 -8 17 -28 21 -45 4 -17
13 -30 21 -30 17 0 31 -10 90 -67 50 -48 56 -44 68 39 6 40 16 57 69 112 59
61 130 105 142 86 3 -4 -1 -10 -7 -13 -7 -2 18 -8 56 -12 68 -8 69 -7 170 42
101 50 183 70 234 57 28 -8 28 -21 0 -44 -19 -15 -21 -21 -11 -43 7 -14 34
-38 60 -53 26 -16 56 -37 66 -49 10 -11 31 -34 47 -51 15 -17 33 -41 39 -53
14 -26 31 -19 31 14 0 13 8 40 17 60 18 38 51 47 73 20 14 -17 82 -20 111 -5
23 13 25 39 4 66 -8 10 -15 25 -15 32 0 7 -9 22 -19 33 -30 32 -35 68 -14 108
10 20 20 38 23 41 12 12 33 79 40 125 8 57 28 115 39 115 4 0 14 19 21 43 16
52 50 130 60 137 3 3 12 19 18 37 9 28 8 36 -11 59 -16 21 -21 43 -23 94 -1
52 -7 75 -27 107 -25 40 -36 93 -52 263 -5 50 -2 70 9 85 15 19 22 105 10 117
-3 3 -7 76 -10 161 -2 85 -11 190 -19 234 -8 43 -15 90 -15 104 0 32 -28 59
-61 59 -14 0 -32 6 -41 13 -15 11 -36 98 -42 177 -4 48 -29 150 -37 150 -3 0
-14 26 -25 58 -10 31 -26 68 -35 82 -9 14 -24 43 -33 65 -10 22 -31 68 -47
101 -21 44 -33 92 -43 167 -8 62 -22 121 -34 144 -11 21 -26 54 -32 73 -7 19
-46 103 -86 186 -41 83 -74 157 -74 163 0 6 -37 49 -82 95 l-83 84 -104 6
c-57 4 -116 9 -130 12 -14 3 -30 1 -36 -4z m-242 -1103 c-1 -13 -9 -41 -17
-61 -14 -34 -20 -38 -51 -38 -24 0 -38 6 -42 16 -8 20 26 85 47 91 8 2 22 8
30 13 23 13 35 5 33 -21z m800 -239 c32 -35 34 -58 8 -91 -10 -13 -26 -42 -37
-64 -10 -22 -32 -60 -50 -85 -17 -25 -50 -83 -72 -130 -23 -47 -58 -114 -77
-150 -19 -36 -35 -72 -35 -81 0 -9 -18 -49 -40 -89 -22 -40 -40 -77 -40 -82 0
-6 -8 -22 -18 -36 -10 -15 -35 -61 -56 -102 -56 -113 -91 -165 -108 -162 -8 1
-38 24 -67 52 l-51 49 24 63 c33 89 131 281 151 298 10 8 33 47 51 87 35 75
57 91 68 50 8 -33 65 -109 76 -102 5 3 8 69 6 148 l-3 142 41 38 c40 36 41 37
15 37 -39 0 -43 26 -14 85 14 29 25 56 25 61 1 24 51 64 80 64 24 0 30 4 30
21 0 19 4 21 33 15 17 -3 44 -20 60 -36z m-306 -447 c-3 -10 -5 -2 -5 17 0 19
2 27 5 18 2 -10 2 -26 0 -35z m-237 -688 c0 -13 -28 -64 -52 -95 -15 -20 -35
-56 -44 -82 -8 -26 -22 -52 -30 -59 -8 -6 -14 -16 -14 -21 0 -15 -54 -78 -67
-78 -7 0 -13 7 -13 15 0 8 -7 15 -15 15 -8 0 -25 12 -39 27 -22 23 -23 29 -12
43 8 8 17 30 21 49 4 19 20 56 36 83 16 27 29 58 29 68 0 24 22 26 40 5 7 -8
16 -12 22 -9 5 3 6 -5 2 -21 -6 -24 -4 -26 17 -23 16 2 30 15 41 38 17 33 37
48 66 49 6 1 12 -1 12 -4z m112 -749 c8 -9 26 -12 49 -9 31 5 38 2 44 -16 9
-29 -3 -64 -21 -57 -7 3 -19 -3 -26 -12 -8 -11 -36 -22 -75 -28 -59 -9 -62 -9
-74 13 -7 13 -16 23 -20 23 -5 0 -13 9 -19 20 -14 26 3 60 30 60 10 0 22 5 25
10 9 15 72 12 87 -4z m249 -121 c87 -2 139 -12 139 -27 0 -6 -7 -8 -15 -4 -8
3 -68 6 -132 7 -64 1 -129 5 -143 9 l-25 7 28 12 c16 6 33 11 38 11 5 0 9 5 9
12 0 6 6 3 14 -7 10 -15 28 -19 87 -20z"/>
<path d="M4220 4290 c0 -5 7 -10 15 -10 8 0 15 5 15 10 0 6 -7 10 -15 10 -8 0
-15 -4 -15 -10z"/>
<path d="M5041 6014 c0 -11 3 -14 6 -6 3 7 2 16 -1 19 -3 4 -6 -2 -5 -13z"/>
<path d="M3223 4465 c-3 -9 -3 -18 0 -21 9 -9 27 6 27 22 0 19 -19 18 -27 -1z"/>
<path d="M3150 3791 c0 -15 16 -22 34 -15 25 9 19 24 -9 24 -14 0 -25 -4 -25
-9z"/>
<path d="M3091 3754 c13 -16 29 -19 29 -5 0 5 -9 11 -21 14 -16 4 -18 3 -8 -9z"/>
<path d="M3190 3750 c-9 -6 -10 -10 -3 -10 6 0 15 5 18 10 8 12 4 12 -15 0z"/>
<path d="M4050 3735 c0 -14 7 -28 15 -31 8 -4 15 -12 15 -19 0 -8 14 -23 30
-35 31 -22 39 -45 18 -54 -9 -3 -6 -11 10 -24 12 -11 22 -26 22 -34 0 -7 10
-1 23 13 23 28 57 45 57 29 0 -6 9 -10 19 -10 30 0 81 -33 81 -52 0 -27 33
-91 58 -113 19 -17 25 -34 30 -94 6 -59 11 -76 27 -85 11 -6 22 -12 24 -14 4
-2 16 -53 41 -167 5 -22 13 -53 19 -68 6 -16 12 -72 12 -125 1 -53 4 -87 6
-74 2 12 9 22 14 22 5 0 9 18 9 40 0 23 -5 40 -11 40 -8 0 -10 17 -6 55 3 30
2 57 -2 60 -5 2 -9 28 -9 57 0 29 -7 69 -15 88 -7 19 -12 60 -11 90 3 73 2 70
17 70 7 0 27 14 45 30 18 17 36 30 39 30 4 0 15 8 25 17 19 17 18 18 -14 29
-40 13 -49 46 -20 77 11 12 27 36 35 53 9 17 23 36 31 43 21 18 22 63 1 55 -8
-4 -15 -11 -15 -17 0 -10 -70 -77 -81 -77 -3 0 -16 -21 -29 -46 -26 -49 -49
-67 -69 -54 -29 17 9 105 77 180 12 14 22 29 22 35 0 5 9 21 20 35 11 14 20
35 20 48 l0 23 -32 -22 c-31 -22 -50 -43 -73 -80 -5 -9 -26 -41 -47 -71 -20
-31 -38 -64 -40 -74 -4 -24 -22 -21 -26 4 -2 11 -14 30 -28 43 -13 12 -24 28
-24 36 0 7 -9 18 -20 25 -11 7 -20 18 -20 24 0 15 -29 39 -37 30 -3 -3 1 -14
10 -24 10 -10 17 -26 17 -35 0 -24 -27 -21 -35 3 -4 11 -17 32 -31 45 -13 13
-24 27 -24 31 0 5 -12 21 -27 36 -23 24 -34 28 -85 28 -55 0 -58 -1 -58 -25z"/>
<path d="M4412 3660 c7 -11 16 -20 20 -20 5 0 3 9 -4 20 -7 11 -16 20 -20 20
-5 0 -3 -9 4 -20z"/>
<path d="M4821 3614 c0 -11 3 -14 6 -6 3 7 2 16 -1 19 -3 4 -6 -2 -5 -13z"/>
<path d="M3981 3344 c0 -11 3 -14 6 -6 3 7 2 16 -1 19 -3 4 -6 -2 -5 -13z"/>
<path d="M3981 2821 c-1 -40 3 -61 8 -55 6 5 6 32 2 64 l-9 55 -1 -64z"/>
<path d="M4003 2680 c0 -25 2 -35 4 -22 2 12 2 32 0 45 -2 12 -4 2 -4 -23z"/>
<path d="M4582 2655 c-2 -64 21 -232 33 -243 8 -9 5 39 -6 108 -7 36 -15 97
-19 135 l-7 70 -1 -70z"/>
<path d="M4030 2502 c0 -38 4 -62 11 -62 7 0 8 19 3 58 -9 77 -14 78 -14 4z"/>
<path d="M4063 2200 c0 -25 2 -35 4 -22 2 12 2 32 0 45 -2 12 -4 2 -4 -23z"/>
<path d="M4110 1940 c0 -11 4 -20 9 -20 5 0 7 9 4 20 -3 11 -7 20 -9 20 -2 0
-4 -9 -4 -20z"/>
<path d="M4132 1760 c0 -14 2 -19 5 -12 2 6 2 18 0 25 -3 6 -5 1 -5 -13z"/>
<path d="M4597 1245 c-38 -33 -36 -55 6 -55 30 0 33 3 35 34 3 45 -7 50 -41
21z"/>
<path d="M4418 1228 c-6 -14 -19 -18 -62 -18 -42 0 -70 -7 -116 -31 -33 -16
-60 -37 -60 -45 0 -8 -7 -28 -15 -44 -12 -23 -13 -40 -6 -72 15 -72 -10 -177
-77 -318 -14 -30 -29 -75 -33 -100 -13 -86 -30 -165 -39 -185 -19 -39 -40
-140 -40 -190 0 -44 5 -56 31 -83 18 -18 42 -35 55 -38 13 -3 24 -10 24 -15 0
-5 11 -9 24 -9 14 0 28 -4 31 -10 4 -6 55 -10 120 -10 115 0 129 4 130 39 0 8
6 16 14 19 9 3 11 -1 6 -17 -4 -13 -2 -21 5 -21 6 0 9 -4 6 -9 -9 -14 55 -23
71 -10 29 25 54 106 66 212 9 88 8 110 -2 117 -19 11 -23 74 -6 96 13 17 14
15 15 -24 0 -31 6 -49 19 -60 19 -16 43 -134 58 -282 6 -52 23 -75 77 -101 35
-17 63 -19 219 -19 170 0 179 1 184 20 3 11 9 20 14 20 5 0 9 9 9 20 0 11 -6
20 -14 20 -8 0 -16 7 -20 15 -3 8 -12 15 -21 15 -24 0 -18 17 13 35 16 10 32
32 39 53 13 41 10 50 -9 34 -8 -7 -29 -7 -58 -2 -26 5 -49 5 -54 -1 -12 -11
-123 -11 -150 0 -18 7 -18 8 5 14 13 4 39 7 57 7 18 0 40 8 52 20 16 16 25 18
45 10 29 -11 55 -4 55 16 0 7 8 19 18 26 10 7 29 28 42 46 22 29 24 41 22 123
-2 55 -11 122 -24 168 -25 92 -31 136 -29 219 1 62 -8 93 -36 120 -19 20 -17
56 3 48 13 -5 15 -1 10 20 -17 67 -40 99 -76 104 -19 4 -45 12 -57 18 -31 17
-58 15 -105 -9 -29 -15 -43 -18 -51 -10 -14 14 -67 14 -101 1 -14 -5 -37 -27
-52 -50 -29 -44 -44 -51 -44 -19 0 11 -4 18 -8 15 -14 -9 -52 24 -52 45 0 13
-7 19 -24 19 -43 0 -85 20 -88 43 -3 19 -4 20 -10 5z m42 -119 c0 -11 -5 -19
-12 -17 -17 6 -19 38 -2 38 8 0 14 -9 14 -21z m440 -4 c0 -8 -4 -15 -10 -15
-5 0 -10 7 -10 15 0 8 5 15 10 15 6 0 10 -7 10 -15z m-380 -125 c0 -5 -9 -10
-21 -10 -11 0 -17 5 -14 10 3 6 13 10 21 10 8 0 14 -4 14 -10z m320 -238 c3
-45 0 -62 -10 -62 -5 0 -10 7 -10 15 0 8 -5 15 -11 15 -5 0 -8 4 -4 9 3 5 1
12 -4 15 -6 4 -2 23 7 46 16 38 17 38 24 14 4 -14 7 -37 8 -52z m-540 60 c0
-21 -32 -70 -49 -75 -14 -3 -17 0 -13 22 3 14 11 34 20 44 16 18 42 23 42 9z
m726 -86 c1 -10 12 -28 23 -40 12 -12 21 -26 21 -31 0 -11 -111 3 -127 17 -21
17 -15 46 15 62 35 20 64 16 68 -8z m-641 -16 c4 -6 -7 -10 -25 -10 -18 0 -29
4 -25 10 3 6 15 10 25 10 10 0 22 -4 25 -10z m25 -198 c0 -5 -7 -30 -17 -57
-13 -39 -18 -45 -23 -30 -4 11 -16 20 -26 20 -44 1 -104 18 -104 29 0 13 93
41 107 33 4 -2 17 -1 28 4 27 10 35 11 35 1z m641 -74 c-28 -53 -38 -60 -59
-47 -16 10 -26 10 -48 0 -20 -9 -29 -9 -34 -1 -4 7 -18 17 -30 23 -49 25 -35
37 42 37 41 0 84 6 98 14 32 17 48 4 31 -26z m-527 -74 c9 -22 -1 -51 -19 -58
-8 -3 -15 -17 -15 -31 0 -17 -5 -25 -17 -24 -11 0 -13 3 -5 6 33 13 4 23 -70
23 -46 0 -94 3 -106 7 -40 10 -3 23 70 23 66 0 100 14 56 23 -17 3 -13 5 12 7
19 1 41 2 48 1 8 -1 16 7 19 18 6 25 19 27 27 5z m-287 -40 c-3 -3 -12 -4 -19
-1 -8 3 -5 6 6 6 11 1 17 -2 13 -5z m880 -136 c-3 -8 -6 -5 -6 6 -1 11 2 17 5
13 3 -3 4 -12 1 -19z"/>
</g>
</svg>
